<?xml version="1.0" encoding="utf-8"?>
<!-- Generator: Adobe Illustrator 16.0.0, SVG Export Plug-In . SVG Version: 6.00 Build 0)  -->
<!DOCTYPE svg PUBLIC "-//W3C//DTD SVG 1.1 Tiny//EN" "http://www.w3.org/Graphics/SVG/1.1/DTD/svg11-tiny.dtd">
<svg version="1.1" baseProfile="tiny" id="Capa_1" xmlns="http://www.w3.org/2000/svg" xmlns:xlink="http://www.w3.org/1999/xlink"
	 x="0px" y="0px" width="558px" height="558px" viewBox="0 0 558 558" xml:space="preserve">
<circle fill="#E57505" cx="279" cy="279" r="279"/>
<g>
	<g>
		<path fill="#FFFFFF" d="M374.236,350.319c1.808-1.011,3.492-2.255,5.02-3.782c8.148-8.145,8.174-20.748,8.205-32.932
			c0.017-7.771,0.037-15.807,2.358-21.402c2.168-5.233,7.428-10.457,12.998-15.99c8.829-8.764,17.954-17.829,17.954-29.896
			c0-12.068-9.125-21.133-17.954-29.901c-5.566-5.529-10.83-10.756-12.998-15.985c-2.321-5.601-2.341-13.632-2.358-21.403
			c-0.03-12.186-0.057-24.787-8.205-32.932c-8.145-8.148-20.749-8.178-32.933-8.205c-7.771-0.017-15.806-0.036-21.402-2.357
			c-5.233-2.168-10.456-7.431-15.989-13.002c-8.765-8.824-17.831-17.949-29.897-17.949s-21.132,9.125-29.897,17.953
			c-5.533,5.567-10.759,10.83-15.989,12.998c-5.6,2.321-13.631,2.341-21.402,2.357c-12.184,0.03-24.784,0.057-32.932,8.205
			c-8.148,8.145-8.175,20.746-8.204,32.932c-0.017,7.771-0.037,15.803-2.358,21.403c-2.168,5.229-7.428,10.456-12.998,15.988
			c-8.828,8.766-17.953,17.83-17.953,29.898c0,12.066,9.125,21.132,17.953,29.896c5.567,5.533,10.83,10.76,12.998,15.99
			c2.321,5.6,2.341,13.631,2.358,21.402c0.026,12.184,0.056,24.787,8.204,32.932c1.528,1.527,3.212,2.771,5.023,3.782
			l-32.869,56.927c-0.86,1.49-0.913,3.314-0.143,4.855c0.771,1.539,2.265,2.588,3.972,2.792l39.143,4.669l23.617,31.564
			c0.97,1.298,2.491,2.052,4.099,2.052c0.104,0,0.204,0,0.307-0.007c1.717-0.104,3.271-1.061,4.132-2.555l38.669-66.975
			c4.335,2.678,9.019,4.408,14.271,4.408c5.25,0,9.933-1.73,14.271-4.408l38.669,66.975c0.86,1.494,2.415,2.451,4.132,2.555
			c0.1,0.007,0.204,0.007,0.304,0.007c1.607,0,3.132-0.754,4.102-2.052l23.614-31.564l39.143-4.669
			c1.711-0.204,3.205-1.253,3.976-2.792c0.771-1.541,0.717-3.365-0.143-4.855L374.236,350.319z M235.953,358.611
			c0.01-0.018,0.016-0.033,0.027-0.051c4.293,2.618,8.622,6.975,13.154,11.537c2.438,2.455,4.9,4.933,7.445,7.23l-35.475,61.439
			l-20.274-27.103c-0.84-1.124-2.105-1.852-3.496-2.019l-33.609-4.009l30.004-51.963c5.7,1.037,11.91,1.052,18.017,1.067
			c4.873,0.01,9.85,0.021,14.265,0.6 M256.404,362.88c-6-6.044-12.204-12.29-19.332-15.245c-7.471-3.099-16.536-3.118-25.304-3.139
			c-10.569-0.026-20.555-0.05-25.712-5.203c-5.156-5.156-5.179-15.142-5.202-25.715c-0.021-8.764-0.04-17.83-3.139-25.301
			c-2.955-7.128-9.202-13.335-15.246-19.334c-7.336-7.287-14.925-14.825-14.925-22.626c0-7.806,7.588-15.343,14.928-22.631
			c6.041-5.999,12.288-12.204,15.243-19.331c3.099-7.476,3.122-16.536,3.142-25.304c0.023-10.573,0.046-20.561,5.202-25.712
			c5.154-5.156,15.139-5.18,25.712-5.203c8.764-0.021,17.83-0.039,25.3-3.138c7.128-2.955,13.335-9.204,19.335-15.247
			c7.288-7.336,14.822-14.924,22.626-14.924s15.339,7.588,22.63,14.924c6,6.043,12.204,12.292,19.331,15.247
			c7.471,3.099,16.536,3.117,25.305,3.138c10.569,0.027,20.555,0.05,25.711,5.203c5.156,5.155,5.18,15.143,5.203,25.713
			c0.02,8.767,0.04,17.832,3.139,25.303c2.955,7.127,9.202,13.334,15.246,19.335c7.337,7.287,14.925,14.825,14.925,22.627
			c0,7.803-7.588,15.342-14.929,22.63c-6.04,5.999-12.287,12.202-15.242,19.33c-3.099,7.475-3.122,16.537-3.142,25.305
			c-0.023,10.572-0.047,20.559-5.203,25.711c-5.153,5.156-15.139,5.18-25.711,5.203c-8.765,0.021-17.831,0.04-25.305,3.139
			c-7.127,2.955-13.331,9.201-19.331,15.245c-7.288,7.338-14.822,14.925-22.626,14.925S263.695,370.218,256.404,362.88
			L256.404,362.88z M333.249,355.205c4.109-0.439,8.632-0.453,13.074-0.463c6.107-0.014,12.317-0.027,18.021-1.064l30,51.964
			l-33.609,4.005c-1.391,0.167-2.655,0.898-3.495,2.019l-20.275,27.103l-35.474-61.439c2.542-2.298,5.003-4.775,7.441-7.228
			c4.886-4.919,9.532-9.592,14.151-12.113c0.086,0.214,0.183,0.42,0.3,0.627 M360.734,409.646"/>
		<path fill="#FFFFFF" d="M336.411,454.179c-0.123,0-0.25-0.001-0.372-0.009c-2.055-0.124-3.901-1.266-4.931-3.054l-38.16-66.094
			c-4.661,2.709-9.222,4.028-13.914,4.028c-4.695,0-9.256-1.319-13.914-4.027l-38.16,66.094c-1.03,1.787-2.876,2.929-4.938,3.053
			c-0.12,0.008-0.241,0.009-0.367,0.009c-1.92,0-3.751-0.917-4.899-2.453l-23.36-31.221l-38.717-4.618
			c-2.049-0.245-3.824-1.493-4.748-3.338c-0.924-1.849-0.86-4.018,0.171-5.803l32.373-56.066c-1.6-0.981-3.065-2.134-4.367-3.436
			c-8.442-8.438-8.47-21.249-8.497-33.637c-0.017-7.669-0.034-15.599-2.282-21.021c-2.088-5.037-7.269-10.187-12.753-15.639
			c-8.997-8.932-18.274-18.141-18.274-30.63c0-12.487,9.277-21.699,18.249-30.608c5.495-5.457,10.686-10.612,12.779-15.661
			c2.248-5.424,2.266-13.354,2.282-21.022c0.03-12.399,0.061-25.204,8.497-33.637c8.435-8.436,21.235-8.467,33.614-8.498
			c7.692-0.017,15.622-0.033,21.044-2.281c5.037-2.088,10.187-7.27,15.639-12.756c8.931-8.994,18.142-18.271,30.63-18.271
			c12.484,0,21.697,9.275,30.607,18.244c5.473,5.511,10.622,10.695,15.662,12.783c5.42,2.248,13.352,2.265,21.021,2.281
			c12.389,0.027,25.2,0.057,33.638,8.498c8.435,8.432,8.467,21.233,8.498,33.614c0.016,7.69,0.033,15.62,2.282,21.045
			c2.09,5.042,7.278,10.194,12.77,15.65c8.98,8.919,18.257,18.133,18.257,30.619c0,12.49-9.277,21.699-18.249,30.605
			c-5.5,5.464-10.688,10.617-12.778,15.663c-2.249,5.42-2.266,13.352-2.282,21.021c-0.031,12.403-0.063,25.205-8.498,33.637
			c-1.301,1.301-2.765,2.453-4.364,3.436l32.369,56.066c1.031,1.786,1.095,3.955,0.171,5.803c-0.924,1.846-2.7,3.093-4.751,3.338
			l-38.717,4.618l-23.357,31.221C340.166,453.262,338.333,454.179,336.411,454.179z M293.657,382.251l39.184,67.866
			c0.693,1.204,1.937,1.973,3.326,2.057c0.086,0.007,0.166,0.003,0.244,0.005c1.294,0,2.528-0.617,3.301-1.65l23.871-31.908
			l39.568-4.72c1.382-0.165,2.578-1.005,3.2-2.246c0.622-1.245,0.579-2.706-0.115-3.908l-33.373-57.805l0.885-0.495
			c1.781-0.996,3.396-2.213,4.8-3.616c7.851-7.848,7.882-20.23,7.912-32.205c0.017-7.887,0.034-16.02,2.434-21.805
			c2.244-5.416,7.57-10.707,13.209-16.309c8.689-8.626,17.666-17.537,17.666-29.194c0-11.653-8.977-20.569-17.658-29.191
			c-5.647-5.609-10.973-10.9-13.217-16.313c-2.4-5.79-2.417-13.921-2.434-21.784c-0.03-11.996-0.061-24.379-7.912-32.227
			c-7.854-7.857-20.245-7.885-32.228-7.912c-7.865-0.017-15.998-0.034-21.783-2.434c-5.411-2.242-10.697-7.564-16.293-13.199
			c-8.643-8.701-17.558-17.676-29.21-17.676c-11.656,0-20.569,8.977-29.188,17.658c-5.621,5.655-10.908,10.976-16.316,13.217
			c-5.788,2.399-13.919,2.417-21.783,2.434c-11.995,0.03-24.376,0.061-32.227,7.912c-7.853,7.85-7.882,20.234-7.911,32.212
			c-0.017,7.879-0.035,16.01-2.435,21.799c-2.247,5.42-7.576,10.712-13.217,16.315c-8.681,8.62-17.658,17.533-17.658,29.188
			c0,11.656,8.977,20.567,17.658,29.186c5.657,5.623,10.976,10.91,13.217,16.317c2.399,5.788,2.417,13.919,2.435,21.783
			c0.026,11.982,0.053,24.371,7.911,32.227c1.406,1.405,3.022,2.622,4.803,3.616l0.886,0.494l-33.376,57.806
			c-0.694,1.202-0.737,2.663-0.115,3.908c0.622,1.241,1.816,2.081,3.196,2.246l39.568,4.72l23.874,31.908
			c0.783,1.047,2.022,1.638,3.349,1.65c0.063,0,0.125,0,0.189-0.005c1.396-0.084,2.639-0.853,3.333-2.056l39.184-67.868l0.876,0.542
			c4.64,2.865,9.137,4.259,13.746,4.259c4.606,0,9.103-1.394,13.746-4.259L293.657,382.251z M235.599,357.225l0.901,0.482
			c4.399,2.683,8.744,7.056,13.343,11.686c2.396,2.413,4.875,4.908,7.406,7.193l0.6,0.542l-36.638,63.453l-21.183-28.317
			c-0.672-0.898-1.697-1.49-2.814-1.624l-35.114-4.188l31.115-53.887l0.693,0.127c5.605,1.02,11.813,1.035,17.817,1.051
			c4.893,0.01,9.93,0.02,14.415,0.608l1.485,0.194 M224.382,356.16c-3.979-0.4-8.374-0.409-12.639-0.418
			c-5.87-0.015-11.91-0.03-17.498-0.962l-28.896,50.044l32.103,3.829c1.658,0.199,3.18,1.079,4.178,2.413l19.366,25.888
			l34.314-59.429c-2.361-2.167-4.658-4.48-6.886-6.723c-4.202-4.23-8.187-8.241-12.101-10.838 M279.034,378.805
			c-8.216,0-15.898-7.731-23.327-15.208c-5.94-5.983-12.07-12.158-19.017-15.038c-7.284-3.021-16.245-3.042-24.91-3.063
			c-10.802-0.027-20.983-0.053-26.431-5.496c-5.45-5.449-5.472-15.636-5.495-26.42c-0.021-8.678-0.041-17.636-3.063-24.92
			c-2.883-6.955-9.057-13.082-15.027-19.007c-7.483-7.433-15.22-15.118-15.22-23.336c0-8.224,7.739-15.909,15.224-23.341
			c5.97-5.929,12.144-12.059,15.023-19.004c3.025-7.297,3.045-16.258,3.066-24.923c0.023-10.785,0.045-20.973,5.495-26.417
			c5.447-5.449,15.633-5.473,26.417-5.496c8.683-0.021,17.638-0.041,24.919-3.062c6.949-2.881,13.08-9.056,19.009-15.027
			c7.438-7.488,15.119-15.22,23.336-15.22c8.213,0,15.893,7.727,23.319,15.198c5.954,5.997,12.084,12.171,19.025,15.049
			c7.282,3.021,16.239,3.041,24.902,3.062c10.817,0.028,20.994,0.054,26.438,5.496c5.45,5.449,5.472,15.634,5.496,26.418
			c0.02,8.673,0.041,17.636,3.063,24.922c2.881,6.948,9.055,13.079,15.026,19.008c7.483,7.432,15.221,15.117,15.221,23.337
			c0,8.225-7.739,15.908-15.224,23.34c-5.974,5.934-12.146,12.063-15.023,19.003c-3.025,7.298-3.045,16.259-3.065,24.924
			c-0.024,10.784-0.046,20.971-5.496,26.416c-5.446,5.449-15.632,5.473-26.416,5.496c-8.678,0.021-17.637,0.041-24.924,3.063
			c-6.947,2.88-13.077,9.055-19.004,15.025C294.938,371.068,287.254,378.805,279.034,378.805z M279.034,115.828
			c-7.385,0-14.768,7.432-21.907,14.618c-6.078,6.122-12.353,12.442-19.672,15.477c-7.647,3.172-16.803,3.193-25.658,3.214
			c-10.382,0.023-20.167,0.045-25.03,4.91c-4.865,4.861-4.887,14.646-4.909,25.007c-0.021,8.86-0.042,18.022-3.218,25.685
			c-3.033,7.315-9.352,13.59-15.462,19.658c-7.194,7.143-14.633,14.529-14.633,21.921c0,7.386,7.437,14.772,14.629,21.916
			c6.11,6.064,12.428,12.335,15.465,19.661c3.173,7.649,3.194,16.809,3.215,25.667c0.022,10.374,0.044,20.159,4.909,25.024
			c4.864,4.86,14.644,4.885,24.999,4.91c8.883,0.021,18.044,0.042,25.694,3.215c7.318,3.034,13.591,9.354,19.658,15.465
			c7.152,7.198,14.536,14.629,21.92,14.629c7.388,0,14.773-7.437,21.915-14.627c6.068-6.113,12.342-12.433,19.66-15.467
			c7.653-3.173,16.813-3.194,25.671-3.215c10.374-0.023,20.159-0.045,25.021-4.91c4.866-4.862,4.888-14.646,4.911-25.006
			c0.02-8.86,0.041-18.022,3.218-25.686c3.031-7.311,9.347-13.584,15.455-19.65c7.201-7.149,14.64-14.535,14.64-21.927
			c0-7.388-7.438-14.774-14.63-21.917c-6.111-6.068-12.43-12.343-15.465-19.662c-3.174-7.651-3.194-16.815-3.215-25.677
			c-0.022-10.365-0.044-20.149-4.91-25.015c-4.861-4.858-14.637-4.884-24.986-4.91c-8.9-0.021-18.059-0.042-25.706-3.214
			c-7.311-3.031-13.585-9.351-19.653-15.462C293.797,123.255,286.416,115.828,279.034,115.828z"/>
	</g>
</g>
<g>
	<path fill="#FFFFFF" d="M371.587,246.317c0-51.038-41.517-92.556-92.553-92.556c-51.036,0-92.553,41.518-92.553,92.556
		c0,51.035,41.517,92.552,92.553,92.552C330.07,338.869,371.587,297.353,371.587,246.317L371.587,246.317z M279.034,328.623
		c-45.386,0-82.307-36.921-82.307-82.306c0-45.387,36.921-82.31,82.307-82.31s82.308,36.923,82.308,82.31
		C361.342,291.702,324.42,328.623,279.034,328.623L279.034,328.623z M279.034,328.623"/>
	<path fill="#FFFFFF" d="M279.034,339.869c-51.585,0-93.553-41.967-93.553-93.552c0-51.587,41.968-93.556,93.553-93.556
		c51.585,0,93.553,41.969,93.553,93.556C372.587,297.902,330.62,339.869,279.034,339.869z M279.034,154.762
		c-50.482,0-91.553,41.071-91.553,91.556c0,50.481,41.07,91.552,91.553,91.552s91.553-41.07,91.553-91.552
		C370.587,195.833,329.517,154.762,279.034,154.762z M279.034,329.623c-45.936,0-83.307-37.371-83.307-83.306
		c0-45.938,37.372-83.31,83.307-83.31c45.936,0,83.308,37.372,83.308,83.31C362.342,292.252,324.97,329.623,279.034,329.623z
		 M279.034,165.008c-44.833,0-81.307,36.476-81.307,81.31c0,44.832,36.474,81.306,81.307,81.306s81.308-36.474,81.308-81.306
		C360.342,201.483,323.867,165.008,279.034,165.008z"/>
</g>
<g>
	<g>
		<path fill="#FFFFFF" d="M301.288,290.604c-2.276,0-4.549-0.608-6.572-1.76l-15.645-8.866l-15.681,8.874
			c-2.005,1.137-4.263,1.736-6.527,1.736c-3.974,0.002-7.854-1.863-10.377-4.985c-2.506-3.101-3.46-7.13-2.619-11.056l3.742-17.641
			l-13.64-12.324c-3.885-3.521-5.319-8.833-3.728-13.85c1.59-5.014,5.815-8.523,11.027-9.161l17.91-2.192l7.83-16.771
			c2.214-4.722,6.82-7.648,12.024-7.648c5.205,0,9.811,2.927,12.019,7.639l7.835,16.781l17.907,2.192
			c5.217,0.636,9.446,4.142,11.034,9.151c1.593,5.018,0.156,10.334-3.751,13.874l-1.611,1.47L310.461,256.9l3.791,17.644
			c0.844,3.949-0.113,7.991-2.625,11.095C309.113,288.748,305.248,290.604,301.288,290.604z M279.075,265.613l21.812,12.363
			c0.227,0.127,0.358,0.127,0.401,0.127c0.214,0,0.464-0.13,0.623-0.326c0.143-0.177,0.176-0.348,0.12-0.615l-5.307-24.7
			l18.946-17.114c0.132-0.119,0.4-0.361,0.246-0.845c-0.147-0.466-0.478-0.505-0.637-0.525l-24.788-3.033l-10.76-23.051
			c-0.059-0.125-0.206-0.437-0.698-0.437c-0.494,0-0.64,0.313-0.703,0.446l-10.757,23.041l-24.785,3.033
			c-0.143,0.018-0.481,0.058-0.632,0.534c-0.153,0.482,0.108,0.719,0.221,0.821l1.645,1.499l17.31,15.623l-5.24,24.699
			c-0.056,0.262-0.024,0.419,0.116,0.592c0.164,0.203,0.434,0.343,0.656,0.343c0.071,0,0.187-0.012,0.369-0.112L279.075,265.613z"/>
		<path fill="#FFFFFF" d="M301.288,291.824c-2.487,0-4.968-0.664-7.175-1.92l-15.042-8.525l-15.08,8.533
			c-2.188,1.24-4.652,1.896-7.128,1.896c-4.341,0-8.574-2.034-11.326-5.438c-2.739-3.388-3.782-7.792-2.863-12.08l3.596-16.95
			l-13.119-11.852c-4.25-3.854-5.811-9.647-4.073-15.125c1.735-5.473,6.35-9.306,12.042-10.002l17.238-2.11l7.544-16.16
			c2.417-5.152,7.448-8.353,13.13-8.353c5.684,0,10.712,3.197,13.123,8.341l7.55,16.172l17.236,2.11
			c5.698,0.693,10.314,4.523,12.049,9.992c1.739,5.479,0.17,11.283-4.095,15.147l-1.608,1.466l-11.485,10.367l3.643,16.953
			c0.921,4.313-0.125,8.729-2.869,12.119C309.833,289.799,305.612,291.824,301.288,291.824z M279.072,278.575l16.246,9.208
			c1.842,1.048,3.906,1.601,5.97,1.601c3.596,0,7.106-1.687,9.391-4.513c2.279-2.814,3.146-6.486,2.38-10.072l-3.938-18.332
			l14.134-12.771c3.552-3.218,4.857-8.046,3.411-12.604c-1.442-4.549-5.282-7.732-10.02-8.311l-18.579-2.273l-8.121-17.395
			c-2.004-4.277-6.187-6.936-10.913-6.936c-4.726,0-8.91,2.662-10.92,6.947l-8.115,17.383l-18.581,2.273
			c-4.733,0.58-8.57,3.769-10.013,8.32c-1.445,4.556-0.147,9.375,3.385,12.576l14.16,12.795l-3.888,18.326
			c-0.764,3.566,0.101,7.225,2.375,10.037c2.294,2.838,5.817,4.532,9.425,4.532c2.058,0,4.107-0.546,5.929-1.578L279.072,278.575z
			 M301.288,279.323c-0.332,0-0.658-0.093-0.998-0.284l-21.215-12.023l-21.242,12.021c-0.931,0.521-1.957,0.237-2.573-0.523
			c-0.376-0.463-0.494-0.989-0.363-1.612l5.095-24.013l-18.437-16.654c-0.828-0.752-0.708-1.633-0.563-2.092
			c0.144-0.453,0.549-1.238,1.642-1.375l24.119-2.951l10.472-22.43c0.469-1,1.334-1.148,1.808-1.148c0.381,0,1.318,0.11,1.801,1.135
			l10.477,22.443l24.116,2.951c1.105,0.141,1.508,0.917,1.651,1.365c0.146,0.462,0.264,1.35-0.592,2.121l-18.422,16.641
			l5.159,24.012c0.131,0.627,0.009,1.176-0.363,1.637C302.472,279.024,301.869,279.323,301.288,279.323z M243.899,235.07
			l0.943,0.859l17.828,16.09l-5.178,24.408l21.584-12.217l21.548,12.214l-5.242-24.396l18.774-16.959l-24.485-2.998l-10.639-22.789
			l-10.641,22.789L243.899,235.07z"/>
	</g>
</g>
</svg>
